<svg xmlns="http://www.w3.org/2000/svg" width="300" height="300" viewBox="0 0 300 300" version="1.1"><path d="M 61.502 82.136 C 53.353 84.043, 50.340 87.276, 43.498 101.459 C 32.515 124.223, 29.196 137.814, 28.306 163.653 L 27.716 180.807 30.190 183.281 C 32.117 185.208, 34.822 186.143, 42.438 187.514 C 53.287 189.468, 53.935 189.243, 54.007 183.500 C 54.102 175.798, 62.394 165.417, 70.715 162.582 C 76.012 160.777, 85.740 160.522, 91.225 162.046 C 99.847 164.440, 106.825 172.519, 109.143 182.792 C 109.937 186.313, 110.759 187.923, 111.598 187.601 C 112.291 187.335, 114.449 186.819, 116.393 186.454 C 118.338 186.089, 120.507 185.092, 121.214 184.238 C 122.229 183.013, 122.459 172.352, 122.304 133.596 C 122.108 84.581, 122.104 84.503, 119.943 82.753 C 117.996 81.176, 115.152 81.010, 91.639 81.100 C 77.263 81.156, 63.701 81.622, 61.502 82.136 M 129.067 82.933 C 127.034 84.966, 127 85.808, 127 133.566 C 127 165.131, 127.362 182.809, 128.035 184.066 C 129.021 185.908, 130.416 186, 157.464 186 L 185.858 186 187.479 180.423 C 189.534 173.357, 195.234 167.006, 202.221 164 C 206.595 162.119, 208.729 161.838, 216.013 162.186 C 223.301 162.535, 225.453 163.063, 229.958 165.608 C 236.409 169.253, 240.563 174.717, 242.230 181.750 L 243.473 187 250.392 187 C 258.633 187, 262.555 184.658, 265.834 177.777 C 268.506 172.170, 272.309 150.866, 271.773 144.500 C 271.468 140.866, 268.658 133.653, 261.493 118.107 C 250.082 93.347, 246.157 88.188, 235.497 83.937 C 229.504 81.548, 229.464 81.546, 180.317 81.206 C 131.709 80.870, 131.110 80.890, 129.067 82.933 M 61.862 92.690 C 56.733 95.873, 48.144 114.008, 43.999 130.410 C 39.482 148.283, 42.301 153, 57.500 153 C 65.265 153, 69.381 151.697, 73.512 147.932 C 77.749 144.071, 85.139 141.715, 93.943 141.419 C 100.665 141.194, 102.696 140.769, 103.714 139.376 C 104.669 138.071, 105 132.014, 105 115.880 C 105 97.452, 104.761 93.904, 103.429 92.571 C 101.059 90.202, 65.709 90.303, 61.862 92.690 M 69.972 167.750 C 52.765 176.752, 52.784 198.460, 70.007 207.329 C 74.926 209.862, 76.284 210.115, 83 209.748 C 87.235 209.516, 91.869 208.624, 93.644 207.698 C 98.055 205.397, 103.018 200.195, 104.774 196.030 C 106.690 191.487, 106.679 183.487, 104.751 178.914 C 99.616 166.734, 82.448 161.223, 69.972 167.750 M 206.367 166.366 C 193.490 170.583, 186.591 184.919, 191.866 196.500 C 194.147 201.508, 200.531 207.347, 205.619 209.080 C 212.061 211.273, 220.054 210.698, 226.421 207.582 C 243.687 199.135, 243.748 176.628, 226.529 167.776 C 221.572 165.227, 211.909 164.551, 206.367 166.366 M 75.500 179.161 C 68.243 183.151, 68.342 192.128, 75.684 195.883 C 76.886 196.497, 79.916 197, 82.418 197 C 92.359 197, 97.135 187.083, 90.184 180.873 C 87.585 178.551, 86.060 178.006, 82.234 178.030 C 79.630 178.047, 76.600 178.556, 75.500 179.161 M 209.388 178.980 C 208.227 179.449, 206.314 181.057, 205.138 182.552 C 197.034 192.854, 214.780 203.511, 223.738 193.721 C 226.771 190.406, 227.311 187.502, 225.535 184.067 C 222.871 178.916, 215.384 176.558, 209.388 178.980 M 77.500 183.195 C 73.492 185.468, 73.005 188.005, 76 191 C 79.972 194.972, 89 192.541, 89 187.500 C 89 183.045, 82.232 180.511, 77.500 183.195 M 212 182.672 C 209.347 183.714, 207 186.260, 207 188.098 C 207 192.515, 217.038 194.826, 220.345 191.171 C 222.346 188.961, 222.491 185.652, 220.655 184.128 C 218.969 182.730, 213.989 181.892, 212 182.672 M 123.139 194.252 C 120.288 195.311, 118.280 197.962, 109.891 211.750 L 100.003 228 105.502 228 C 108.526 228, 111 227.559, 111 227.020 C 111 226.481, 113.073 221.306, 115.607 215.520 C 119.125 207.488, 120.662 205, 122.107 205 C 124.421 205, 124.422 204.785, 122.075 210.123 C 121.016 212.530, 119.011 217.537, 117.620 221.250 L 115.090 228 118.896 228 L 122.702 228 126.090 217 C 128.725 208.448, 129.870 206, 131.239 206 C 133.490 206, 133.513 205.792, 130 217 C 128.362 222.225, 127.017 226.838, 127.011 227.250 C 127.005 227.662, 128.478 228, 130.284 228 L 133.569 228 135.955 217 C 137.978 207.675, 138.632 206, 140.250 206 C 141.798 206, 142.056 206.520, 141.612 208.750 C 141.312 210.262, 140.578 214.425, 139.981 218 C 139.384 221.575, 138.664 225.287, 138.381 226.250 C 137.958 227.686, 138.505 228, 141.433 228 L 145 228 145 223.147 C 145 220.477, 145.289 215.527, 145.642 212.147 C 146.175 207.054, 146.604 206, 148.142 206 C 149.840 206, 150 206.948, 150 217 L 150 228 153.289 228 L 156.577 228 155.851 220.750 C 154.691 209.181, 154.814 206, 156.421 206 C 157.927 206, 158.523 208.130, 159.500 217 C 160.687 227.774, 160.791 228, 164.579 228 C 166.461 228, 168 227.744, 168 227.431 C 168 227.118, 166.854 222.340, 165.452 216.812 C 164.051 211.285, 163.132 206.535, 163.409 206.257 C 165.109 204.557, 167.020 208.056, 169.499 217.410 L 172.307 228 176.260 228 C 179.022 228, 180.064 227.623, 179.717 226.750 C 179.443 226.063, 177.370 220.878, 175.110 215.230 C 172.849 209.581, 171 204.711, 171 204.407 C 171 204.102, 171.722 203.999, 172.605 204.177 C 173.555 204.368, 176.329 209.185, 179.413 216 L 184.616 227.500 189.809 227.802 L 195.001 228.105 184.851 212.007 C 179.268 203.154, 173.980 195.532, 173.100 195.071 C 170.211 193.558, 126.922 192.848, 123.139 194.252" stroke="none" fill="#f9fafa" fill-rule="evenodd"/><path d="M 7.500 1.855 C 5.850 2.877, 3.600 4.725, 2.500 5.962 C 0.523 8.184, 0.497 9.816, 0.236 148.355 C 0.050 247.498, 0.290 289.270, 1.059 291.133 C 1.656 292.580, 3.492 295.055, 5.138 296.633 L 8.131 299.500 147.816 299.777 C 224.642 299.930, 288.478 299.818, 289.673 299.528 C 292.773 298.776, 297.637 294.433, 299.450 290.799 C 300.828 288.038, 301 272.191, 301 148.287 C 301 62.815, 300.641 9.104, 300.072 9.456 C 299.562 9.771, 298.881 9.202, 298.560 8.191 C 298.240 7.179, 296.603 5.035, 294.923 3.426 L 291.869 0.500 151.184 0.248 C 15.560 0.005, 10.392 0.063, 7.500 1.855 M 0.486 150 C 0.486 227.275, 0.605 258.888, 0.750 220.250 C 0.895 181.613, 0.895 118.388, 0.750 79.750 C 0.605 41.113, 0.486 72.725, 0.486 150 M 61.502 82.136 C 53.353 84.043, 50.340 87.276, 43.498 101.459 C 32.515 124.223, 29.196 137.814, 28.306 163.653 L 27.716 180.807 30.190 183.281 C 32.117 185.208, 34.822 186.143, 42.438 187.514 C 53.287 189.468, 53.935 189.243, 54.007 183.500 C 54.102 175.798, 62.394 165.417, 70.715 162.582 C 76.012 160.777, 85.740 160.522, 91.225 162.046 C 99.847 164.440, 106.825 172.519, 109.143 182.792 C 109.937 186.313, 110.759 187.923, 111.598 187.601 C 112.291 187.335, 114.449 186.819, 116.393 186.454 C 118.338 186.089, 120.507 185.092, 121.214 184.238 C 122.229 183.013, 122.459 172.352, 122.304 133.596 C 122.108 84.581, 122.104 84.503, 119.943 82.753 C 117.996 81.176, 115.152 81.010, 91.639 81.100 C 77.263 81.156, 63.701 81.622, 61.502 82.136 M 129.067 82.933 C 127.034 84.966, 127 85.808, 127 133.566 C 127 165.131, 127.362 182.809, 128.035 184.066 C 129.021 185.908, 130.416 186, 157.464 186 L 185.858 186 187.479 180.423 C 189.534 173.357, 195.234 167.006, 202.221 164 C 206.595 162.119, 208.729 161.838, 216.013 162.186 C 223.301 162.535, 225.453 163.063, 229.958 165.608 C 236.409 169.253, 240.563 174.717, 242.230 181.750 L 243.473 187 250.392 187 C 258.633 187, 262.555 184.658, 265.834 177.777 C 268.506 172.170, 272.309 150.866, 271.773 144.500 C 271.468 140.866, 268.658 133.653, 261.493 118.107 C 250.082 93.347, 246.157 88.188, 235.497 83.937 C 229.504 81.548, 229.464 81.546, 180.317 81.206 C 131.709 80.870, 131.110 80.890, 129.067 82.933 M 61.862 92.690 C 56.733 95.873, 48.144 114.008, 43.999 130.410 C 39.482 148.283, 42.301 153, 57.500 153 C 65.265 153, 69.381 151.697, 73.512 147.932 C 77.749 144.071, 85.139 141.715, 93.943 141.419 C 100.665 141.194, 102.696 140.769, 103.714 139.376 C 104.669 138.071, 105 132.014, 105 115.880 C 105 97.452, 104.761 93.904, 103.429 92.571 C 101.059 90.202, 65.709 90.303, 61.862 92.690 M 69.972 167.750 C 52.765 176.752, 52.784 198.460, 70.007 207.329 C 74.926 209.862, 76.284 210.115, 83 209.748 C 87.235 209.516, 91.869 208.624, 93.644 207.698 C 98.055 205.397, 103.018 200.195, 104.774 196.030 C 106.690 191.487, 106.679 183.487, 104.751 178.914 C 99.616 166.734, 82.448 161.223, 69.972 167.750 M 206.367 166.366 C 193.490 170.583, 186.591 184.919, 191.866 196.500 C 194.147 201.508, 200.531 207.347, 205.619 209.080 C 212.061 211.273, 220.054 210.698, 226.421 207.582 C 243.687 199.135, 243.748 176.628, 226.529 167.776 C 221.572 165.227, 211.909 164.551, 206.367 166.366 M 75.500 179.161 C 68.243 183.151, 68.342 192.128, 75.684 195.883 C 76.886 196.497, 79.916 197, 82.418 197 C 92.359 197, 97.135 187.083, 90.184 180.873 C 87.585 178.551, 86.060 178.006, 82.234 178.030 C 79.630 178.047, 76.600 178.556, 75.500 179.161 M 209.388 178.980 C 208.227 179.449, 206.314 181.057, 205.138 182.552 C 197.034 192.854, 214.780 203.511, 223.738 193.721 C 226.771 190.406, 227.311 187.502, 225.535 184.067 C 222.871 178.916, 215.384 176.558, 209.388 178.980 M 77.500 183.195 C 73.492 185.468, 73.005 188.005, 76 191 C 79.972 194.972, 89 192.541, 89 187.500 C 89 183.045, 82.232 180.511, 77.500 183.195 M 212 182.672 C 209.347 183.714, 207 186.260, 207 188.098 C 207 192.515, 217.038 194.826, 220.345 191.171 C 222.346 188.961, 222.491 185.652, 220.655 184.128 C 218.969 182.730, 213.989 181.892, 212 182.672 M 123.139 194.252 C 120.288 195.311, 118.280 197.962, 109.891 211.750 L 100.003 228 105.502 228 C 108.526 228, 111 227.559, 111 227.020 C 111 226.481, 113.073 221.306, 115.607 215.520 C 119.125 207.488, 120.662 205, 122.107 205 C 124.421 205, 124.422 204.785, 122.075 210.123 C 121.016 212.530, 119.011 217.537, 117.620 221.250 L 115.090 228 118.896 228 L 122.702 228 126.090 217 C 128.725 208.448, 129.870 206, 131.239 206 C 133.490 206, 133.513 205.792, 130 217 C 128.362 222.225, 127.017 226.838, 127.011 227.250 C 127.005 227.662, 128.478 228, 130.284 228 L 133.569 228 135.955 217 C 137.978 207.675, 138.632 206, 140.250 206 C 141.798 206, 142.056 206.520, 141.612 208.750 C 141.312 210.262, 140.578 214.425, 139.981 218 C 139.384 221.575, 138.664 225.287, 138.381 226.250 C 137.958 227.686, 138.505 228, 141.433 228 L 145 228 145 223.147 C 145 220.477, 145.289 215.527, 145.642 212.147 C 146.175 207.054, 146.604 206, 148.142 206 C 149.840 206, 150 206.948, 150 217 L 150 228 153.289 228 L 156.577 228 155.851 220.750 C 154.691 209.181, 154.814 206, 156.421 206 C 157.927 206, 158.523 208.130, 159.500 217 C 160.687 227.774, 160.791 228, 164.579 228 C 166.461 228, 168 227.744, 168 227.431 C 168 227.118, 166.854 222.340, 165.452 216.812 C 164.051 211.285, 163.132 206.535, 163.409 206.257 C 165.109 204.557, 167.020 208.056, 169.499 217.410 L 172.307 228 176.260 228 C 179.022 228, 180.064 227.623, 179.717 226.750 C 179.443 226.063, 177.370 220.878, 175.110 215.230 C 172.849 209.581, 171 204.711, 171 204.407 C 171 204.102, 171.722 203.999, 172.605 204.177 C 173.555 204.368, 176.329 209.185, 179.413 216 L 184.616 227.500 189.809 227.802 L 195.001 228.105 184.851 212.007 C 179.268 203.154, 173.980 195.532, 173.100 195.071 C 170.211 193.558, 126.922 192.848, 123.139 194.252" stroke="none" fill="#34748c" fill-rule="evenodd"/></svg>